<svg width="13" height="20" viewBox="0 0 13 20" fill="none" xmlns="http://www.w3.org/2000/svg">
<path d="M6.5 4.5C7.16304 4.5 7.79893 4.76339 8.26777 5.23223C8.73661 5.70107 9 6.33696 9 7C9 7.3283 8.93534 7.65339 8.8097 7.95671C8.68406 8.26002 8.49991 8.53562 8.26777 8.76777C8.03562 8.99991 7.76002 9.18406 7.45671 9.3097C7.15339 9.43534 6.8283 9.5 6.5 9.5C5.83696 9.5 5.20107 9.23661 4.73223 8.76777C4.26339 8.29893 4 7.66304 4 7C4 6.33696 4.26339 5.70107 4.73223 5.23223C5.20107 4.76339 5.83696 4.5 6.5 4.5ZM6.5 5.5C6.10218 5.5 5.72064 5.65804 5.43934 5.93934C5.15804 6.22064 5 6.60218 5 7C5 7.39782 5.15804 7.77936 5.43934 8.06066C5.72064 8.34196 6.10218 8.5 6.5 8.5C6.89782 8.5 7.27936 8.34196 7.56066 8.06066C7.84196 7.77936 8 7.39782 8 7C8 6.60218 7.84196 6.22064 7.56066 5.93934C7.27936 5.65804 6.89782 5.5 6.5 5.5ZM1.8 9.86L6.5 17.59L11.2 9.86C11.71 9 12 8.05 12 7C12 5.54131 11.4205 4.14236 10.3891 3.11091C9.35764 2.07946 7.95869 1.5 6.5 1.5C5.04131 1.5 3.64236 2.07946 2.61091 3.11091C1.57946 4.14236 1 5.54131 1 7C1 8.05 1.29 9 1.8 9.86ZM12.05 10.38L6.5 19.5L0.95 10.38C0.35 9.39 0 8.24 0 7C0 5.27609 0.684819 3.62279 1.90381 2.40381C3.12279 1.18482 4.77609 0.5 6.5 0.5C8.22391 0.5 9.87721 1.18482 11.0962 2.40381C12.3152 3.62279 13 5.27609 13 7C13 8.24 12.65 9.39 12.05 10.38Z" fill="white"/>
</svg>
