<svg width="237" height="71" viewBox="0 0 237 71" fill="none" xmlns="http://www.w3.org/2000/svg">
<rect y="22.72" width="13.9355" height="48.28" fill="white"/>
<rect x="17.0322" y="11.36" width="13.9355" height="59.64" fill="white"/>
<rect x="34.0645" y="39.76" width="13.9355" height="31.24" fill="white"/>
<line x1="5.575e-08" y1="19.38" x2="13.9355" y2="19.38" stroke="black"/>
<line x1="1.54834" y1="16.54" x2="12.387" y2="16.54" stroke="black"/>
<line x1="7.24219" y1="14.2" x2="7.24219" y2="11.36" stroke="black"/>
<line x1="17.0322" y1="8.01999" x2="30.9677" y2="8.01999" stroke="black"/>
<line x1="18.5806" y1="5.17999" x2="29.4193" y2="5.17999" stroke="black"/>
<line x1="24.2744" y1="2.84" x2="24.2744" y2="-3.59632e-06" stroke="black"/>
<line x1="34.0645" y1="36.42" x2="47.9999" y2="36.42" stroke="black"/>
<line x1="35.6128" y1="33.58" x2="46.4515" y2="33.58" stroke="black"/>
<line x1="41.3062" y1="31.24" x2="41.3062" y2="28.4" stroke="black"/>
<rect y="22.72" width="13.9355" height="48.28" fill="#FB8500"/>
<rect x="17.0322" y="11.36" width="13.9355" height="59.64" fill="#FB8500"/>
<rect x="34.0645" y="39.76" width="13.9355" height="31.24" fill="#FB8500"/>
<line x1="5.575e-08" y1="19.38" x2="13.9355" y2="19.38" stroke="#FFB703"/>
<line x1="1.54834" y1="16.54" x2="12.387" y2="16.54" stroke="#FFB703"/>
<line x1="7.24219" y1="14.2" x2="7.24219" y2="11.36" stroke="#FFB703"/>
<line x1="17.0322" y1="8.01999" x2="30.9677" y2="8.01999" stroke="#FFB703"/>
<line x1="18.5806" y1="5.17999" x2="29.4193" y2="5.17999" stroke="#FFB703"/>
<line x1="24.2744" y1="2.84" x2="24.2744" y2="-3.59632e-06" stroke="#FFB703"/>
<line x1="34.0645" y1="36.42" x2="47.9999" y2="36.42" stroke="#FFB703"/>
<line x1="35.6128" y1="33.58" x2="46.4515" y2="33.58" stroke="#FFB703"/>
<line x1="41.3062" y1="31.24" x2="41.3062" y2="28.4" stroke="#FFB703"/>
<path d="M77.56 31.68C76.6 31.68 75.706 31.524 74.878 31.212C74.062 30.888 73.348 30.438 72.736 29.862C72.136 29.274 71.668 28.584 71.332 27.792C70.996 27 70.828 26.136 70.828 25.2C70.828 24.264 70.996 23.4 71.332 22.608C71.668 21.816 72.142 21.132 72.754 20.556C73.366 19.968 74.08 19.518 74.896 19.206C75.712 18.882 76.606 18.72 77.578 18.72C78.61 18.72 79.552 18.9 80.404 19.26C81.256 19.608 81.976 20.13 82.564 20.826L81.052 22.248C80.596 21.756 80.086 21.39 79.522 21.15C78.958 20.898 78.346 20.772 77.686 20.772C77.026 20.772 76.42 20.88 75.868 21.096C75.328 21.312 74.854 21.618 74.446 22.014C74.05 22.41 73.738 22.878 73.51 23.418C73.294 23.958 73.186 24.552 73.186 25.2C73.186 25.848 73.294 26.442 73.51 26.982C73.738 27.522 74.05 27.99 74.446 28.386C74.854 28.782 75.328 29.088 75.868 29.304C76.42 29.52 77.026 29.628 77.686 29.628C78.346 29.628 78.958 29.508 79.522 29.268C80.086 29.016 80.596 28.638 81.052 28.134L82.564 29.574C81.976 30.258 81.256 30.78 80.404 31.14C79.552 31.5 78.604 31.68 77.56 31.68ZM91.0095 31.626C90.0255 31.626 89.1495 31.416 88.3815 30.996C87.6135 30.564 87.0075 29.976 86.5635 29.232C86.1195 28.488 85.8975 27.642 85.8975 26.694C85.8975 25.734 86.1195 24.888 86.5635 24.156C87.0075 23.412 87.6135 22.83 88.3815 22.41C89.1495 21.99 90.0255 21.78 91.0095 21.78C92.0055 21.78 92.8875 21.99 93.6555 22.41C94.4355 22.83 95.0415 23.406 95.4735 24.138C95.9175 24.87 96.1395 25.722 96.1395 26.694C96.1395 27.642 95.9175 28.488 95.4735 29.232C95.0415 29.976 94.4355 30.564 93.6555 30.996C92.8875 31.416 92.0055 31.626 91.0095 31.626ZM91.0095 29.7C91.5615 29.7 92.0535 29.58 92.4855 29.34C92.9175 29.1 93.2535 28.752 93.4935 28.296C93.7455 27.84 93.8715 27.306 93.8715 26.694C93.8715 26.07 93.7455 25.536 93.4935 25.092C93.2535 24.636 92.9175 24.288 92.4855 24.048C92.0535 23.808 91.5675 23.688 91.0275 23.688C90.4755 23.688 89.9835 23.808 89.5515 24.048C89.1315 24.288 88.7955 24.636 88.5435 25.092C88.2915 25.536 88.1655 26.07 88.1655 26.694C88.1655 27.306 88.2915 27.84 88.5435 28.296C88.7955 28.752 89.1315 29.1 89.5515 29.34C89.9835 29.58 90.4695 29.7 91.0095 29.7ZM100.972 31.5V21.888H103.222V25.614H106.084V27.648H103.222V31.5H100.972ZM109.756 31.626C108.796 31.626 107.938 31.416 107.182 30.996C106.438 30.564 105.85 29.976 105.418 29.232C104.986 28.488 104.77 27.642 104.77 26.694C104.77 25.734 104.986 24.882 105.418 24.138C105.85 23.394 106.438 22.818 107.182 22.41C107.938 21.99 108.796 21.78 109.756 21.78C110.728 21.78 111.586 21.99 112.33 22.41C113.086 22.818 113.68 23.394 114.112 24.138C114.544 24.882 114.76 25.734 114.76 26.694C114.76 27.642 114.544 28.494 114.112 29.25C113.68 29.994 113.086 30.576 112.33 30.996C111.586 31.416 110.728 31.626 109.756 31.626ZM109.756 29.718C110.296 29.718 110.77 29.592 111.178 29.34C111.598 29.088 111.928 28.74 112.168 28.296C112.408 27.852 112.528 27.318 112.528 26.694C112.528 26.07 112.408 25.536 112.168 25.092C111.928 24.636 111.598 24.288 111.178 24.048C110.77 23.808 110.302 23.688 109.774 23.688C109.246 23.688 108.772 23.808 108.352 24.048C107.932 24.288 107.602 24.636 107.362 25.092C107.122 25.536 107.002 26.07 107.002 26.694C107.002 27.318 107.122 27.852 107.362 28.296C107.602 28.74 107.932 29.088 108.352 29.34C108.772 29.592 109.24 29.718 109.756 29.718ZM122.48 31.662C123.368 31.662 124.154 31.536 124.838 31.284C125.534 31.032 126.08 30.684 126.476 30.24C126.872 29.784 127.07 29.262 127.07 28.674C127.07 27.942 126.764 27.366 126.152 26.946C125.54 26.514 124.7 26.298 123.632 26.298L123.56 26.784C124.184 26.784 124.736 26.682 125.216 26.478C125.708 26.274 126.092 25.992 126.368 25.632C126.656 25.26 126.8 24.846 126.8 24.39C126.8 23.838 126.602 23.358 126.206 22.95C125.81 22.542 125.27 22.23 124.586 22.014C123.902 21.798 123.122 21.708 122.246 21.744C121.67 21.756 121.088 21.84 120.5 21.996C119.924 22.14 119.33 22.35 118.718 22.626L119.294 24.282C119.822 24.054 120.338 23.88 120.842 23.76C121.358 23.64 121.856 23.58 122.336 23.58C122.792 23.58 123.182 23.628 123.506 23.724C123.83 23.808 124.076 23.94 124.244 24.12C124.424 24.288 124.514 24.486 124.514 24.714C124.514 24.942 124.442 25.14 124.298 25.308C124.154 25.476 123.944 25.602 123.668 25.686C123.404 25.77 123.08 25.812 122.696 25.812H121.022V27.324H122.876C123.488 27.324 123.956 27.426 124.28 27.63C124.616 27.822 124.784 28.11 124.784 28.494C124.784 28.758 124.682 28.992 124.478 29.196C124.286 29.4 124.01 29.556 123.65 29.664C123.29 29.76 122.858 29.808 122.354 29.808C121.766 29.808 121.178 29.736 120.59 29.592C120.002 29.448 119.474 29.244 119.006 28.98L118.376 30.654C118.952 30.978 119.594 31.23 120.302 31.41C121.022 31.578 121.748 31.662 122.48 31.662ZM71.782 55.5V42.9H82.924V55.5H80.62V44.304L81.16 44.88H73.546L74.086 44.304V55.5H71.782ZM88.8349 55.5V45.888H91.0849V52.224L96.3949 45.888H98.4469V55.5H96.1969V49.164L90.9049 55.5H88.8349ZM108.458 55.626C107.45 55.626 106.55 55.416 105.758 54.996C104.978 54.564 104.366 53.976 103.922 53.232C103.478 52.488 103.256 51.642 103.256 50.694C103.256 49.734 103.478 48.888 103.922 48.156C104.366 47.412 104.978 46.83 105.758 46.41C106.55 45.99 107.45 45.78 108.458 45.78C109.394 45.78 110.216 45.972 110.924 46.356C111.644 46.728 112.19 47.28 112.562 48.012L110.834 49.02C110.546 48.564 110.192 48.228 109.772 48.012C109.364 47.796 108.92 47.688 108.44 47.688C107.888 47.688 107.39 47.808 106.946 48.048C106.502 48.288 106.154 48.636 105.902 49.092C105.65 49.536 105.524 50.07 105.524 50.694C105.524 51.318 105.65 51.858 105.902 52.314C106.154 52.758 106.502 53.1 106.946 53.34C107.39 53.58 107.888 53.7 108.44 53.7C108.92 53.7 109.364 53.592 109.772 53.376C110.192 53.16 110.546 52.824 110.834 52.368L112.562 53.376C112.19 54.096 111.644 54.654 110.924 55.05C110.216 55.434 109.394 55.626 108.458 55.626ZM122.985 55.5V53.556L122.859 53.142V49.74C122.859 49.08 122.661 48.57 122.265 48.21C121.869 47.838 121.269 47.652 120.465 47.652C119.925 47.652 119.391 47.736 118.863 47.904C118.347 48.072 117.909 48.306 117.549 48.606L116.667 46.968C117.183 46.572 117.795 46.278 118.503 46.086C119.223 45.882 119.967 45.78 120.735 45.78C122.127 45.78 123.201 46.116 123.957 46.788C124.725 47.448 125.109 48.474 125.109 49.866V55.5H122.985ZM119.961 55.626C119.241 55.626 118.611 55.506 118.071 55.266C117.531 55.014 117.111 54.672 116.811 54.24C116.523 53.796 116.379 53.298 116.379 52.746C116.379 52.206 116.505 51.72 116.757 51.288C117.021 50.856 117.447 50.514 118.035 50.262C118.623 50.01 119.403 49.884 120.375 49.884H123.165V51.378H120.537C119.769 51.378 119.253 51.504 118.989 51.756C118.725 51.996 118.593 52.296 118.593 52.656C118.593 53.064 118.755 53.388 119.079 53.628C119.403 53.868 119.853 53.988 120.429 53.988C120.981 53.988 121.473 53.862 121.905 53.61C122.349 53.358 122.667 52.986 122.859 52.494L123.237 53.844C123.021 54.408 122.631 54.846 122.067 55.158C121.515 55.47 120.813 55.626 119.961 55.626ZM132.501 55.5V47.256L133.023 47.796H129.117V45.888H138.117V47.796H134.229L134.751 47.256V55.5H132.501ZM146.419 55.626C145.351 55.626 144.415 55.416 143.611 54.996C142.819 54.564 142.201 53.976 141.757 53.232C141.325 52.488 141.109 51.642 141.109 50.694C141.109 49.734 141.319 48.888 141.739 48.156C142.171 47.412 142.759 46.83 143.503 46.41C144.259 45.99 145.117 45.78 146.077 45.78C147.013 45.78 147.847 45.984 148.579 46.392C149.311 46.8 149.887 47.376 150.307 48.12C150.727 48.864 150.937 49.74 150.937 50.748C150.937 50.844 150.931 50.952 150.919 51.072C150.919 51.192 150.913 51.306 150.901 51.414H142.891V49.92H149.713L148.831 50.388C148.843 49.836 148.729 49.35 148.489 48.93C148.249 48.51 147.919 48.18 147.499 47.94C147.091 47.7 146.617 47.58 146.077 47.58C145.525 47.58 145.039 47.7 144.619 47.94C144.211 48.18 143.887 48.516 143.647 48.948C143.419 49.368 143.305 49.866 143.305 50.442V50.802C143.305 51.378 143.437 51.888 143.701 52.332C143.965 52.776 144.337 53.118 144.817 53.358C145.297 53.598 145.849 53.718 146.473 53.718C147.013 53.718 147.499 53.634 147.931 53.466C148.363 53.298 148.747 53.034 149.083 52.674L150.289 54.06C149.857 54.564 149.311 54.954 148.651 55.23C148.003 55.494 147.259 55.626 146.419 55.626ZM154.481 55.482L154.589 53.592C154.673 53.604 154.751 53.616 154.823 53.628C154.895 53.64 154.961 53.646 155.021 53.646C155.393 53.646 155.681 53.532 155.885 53.304C156.089 53.076 156.239 52.77 156.335 52.386C156.443 51.99 156.515 51.552 156.551 51.072C156.599 50.58 156.635 50.088 156.659 49.596L156.821 45.888H164.597V55.5H162.347V47.184L162.869 47.796H158.297L158.783 47.166L158.657 49.704C158.621 50.556 158.549 51.348 158.441 52.08C158.345 52.8 158.189 53.43 157.973 53.97C157.769 54.51 157.481 54.93 157.109 55.23C156.749 55.53 156.287 55.68 155.723 55.68C155.543 55.68 155.345 55.662 155.129 55.626C154.925 55.59 154.709 55.542 154.481 55.482ZM174.719 55.626C173.651 55.626 172.715 55.416 171.911 54.996C171.119 54.564 170.501 53.976 170.057 53.232C169.625 52.488 169.409 51.642 169.409 50.694C169.409 49.734 169.619 48.888 170.039 48.156C170.471 47.412 171.059 46.83 171.803 46.41C172.559 45.99 173.417 45.78 174.377 45.78C175.313 45.78 176.147 45.984 176.879 46.392C177.611 46.8 178.187 47.376 178.607 48.12C179.027 48.864 179.237 49.74 179.237 50.748C179.237 50.844 179.231 50.952 179.219 51.072C179.219 51.192 179.213 51.306 179.201 51.414H171.191V49.92H178.013L177.131 50.388C177.143 49.836 177.029 49.35 176.789 48.93C176.549 48.51 176.219 48.18 175.799 47.94C175.391 47.7 174.917 47.58 174.377 47.58C173.825 47.58 173.339 47.7 172.919 47.94C172.511 48.18 172.187 48.516 171.947 48.948C171.719 49.368 171.605 49.866 171.605 50.442V50.802C171.605 51.378 171.737 51.888 172.001 52.332C172.265 52.776 172.637 53.118 173.117 53.358C173.597 53.598 174.149 53.718 174.773 53.718C175.313 53.718 175.799 53.634 176.231 53.466C176.663 53.298 177.047 53.034 177.383 52.674L178.589 54.06C178.157 54.564 177.611 54.954 176.951 55.23C176.303 55.494 175.559 55.626 174.719 55.626ZM184.308 55.5V45.888H186.558V52.224L191.868 45.888H193.92V55.5H191.67V49.164L186.378 55.5H184.308ZM188.97 44.754C188.01 44.754 187.272 44.532 186.756 44.088C186.24 43.632 185.976 42.972 185.964 42.108H187.458C187.47 42.54 187.602 42.882 187.854 43.134C188.118 43.386 188.484 43.512 188.952 43.512C189.408 43.512 189.768 43.386 190.032 43.134C190.308 42.882 190.452 42.54 190.464 42.108H191.994C191.982 42.972 191.712 43.632 191.184 44.088C190.668 44.532 189.93 44.754 188.97 44.754Z" fill="white"/>
</svg>
