<svg width="21" height="17" viewBox="0 0 21 17" fill="none" xmlns="http://www.w3.org/2000/svg">
<path d="M18.2446 0.234375H2.75505C2.06438 0.234375 1.402 0.508742 0.913622 0.997118C0.425246 1.48549 0.150879 2.14787 0.150879 2.83854V14.1615C0.150879 14.8521 0.425246 15.5145 0.913622 16.0029C1.402 16.4913 2.06438 16.7656 2.75505 16.7656H18.2446C18.9353 16.7656 19.5977 16.4913 20.0861 16.0029C20.5744 15.5145 20.8488 14.8521 20.8488 14.1615V2.83854C20.8488 2.14787 20.5744 1.48549 20.0861 0.997118C19.5977 0.508742 18.9353 0.234375 18.2446 0.234375ZM2.75505 1.27604H18.2446C18.6389 1.2749 19.0188 1.42397 19.3071 1.69293C19.5954 1.96188 19.7705 2.33055 19.7967 2.72396C17.2238 4.09896 14.6405 5.46354 12.0571 6.83854C11.7076 7.05756 11.3379 7.24244 10.953 7.39062C10.6508 7.45026 10.3394 7.44487 10.0394 7.37483C9.73948 7.30478 9.45789 7.17168 9.21338 6.98438C7.73421 6.20312 6.25504 5.41146 4.7863 4.63021C3.5988 4.00521 2.39046 3.36979 1.20296 2.73438C1.22712 2.33929 1.40122 1.96833 1.68968 1.69729C1.97815 1.42624 2.35922 1.27557 2.75505 1.27604ZM19.8071 14.1615C19.8071 14.5759 19.6425 14.9733 19.3495 15.2663C19.0565 15.5593 18.659 15.724 18.2446 15.724H2.75505C2.34064 15.724 1.94322 15.5593 1.65019 15.2663C1.35717 14.9733 1.19255 14.5759 1.19255 14.1615V3.91667C3.65088 5.20833 6.09879 6.52083 8.55713 7.82292C8.99635 8.0922 9.46918 8.30235 9.96338 8.44792C10.6867 8.56552 11.428 8.41355 12.0467 8.02083C13.5571 7.22917 15.0571 6.42708 16.5675 5.63542C17.6509 5.05208 18.7238 4.48958 19.8071 3.91667V14.1615Z" fill="white"/>
</svg>
